<svg xmlns="http://www.w3.org/2000/svg" viewBox="0 0 300 64" width="300" height="64" role="img" aria-label="Lovely Track Access (LTA)">
  <defs>
    <linearGradient id="lta-bg-f" x1="0" y1="0" x2="1" y2="1">
      <stop offset="0%" stop-color="#7dd3fc"/>
      <stop offset="45%" stop-color="#38bdf8"/>
      <stop offset="100%" stop-color="#0284c7"/>
    </linearGradient>
  </defs>
  <g transform="translate(8,8)">
    <rect x="0" y="0" width="48" height="48" rx="13" fill="url(#lta-bg-f)"/>
    <path d="M0 13A13 13 0 0 1 13 0h22L0 35Z" fill="#ffffff" opacity="0.14"/>
    <g stroke="#041022" stroke-width="3.2" stroke-linecap="round" stroke-linejoin="round" fill="none">
      <path d="M9.5 13.5V28.5H16"/>
      <path d="M18 13.5H27.5M22.75 13.5V28.5"/>
      <path d="M29.5 28.5L34 13.5L38.5 28.5M31 23.5H37"/>
    </g>
    <g stroke="#041022" stroke-linecap="round" fill="none">
      <path d="M14.8 35.6H33.2" stroke-width="1.5" opacity="0.5"/>
      <path d="M11.4 38.9H36.6" stroke-width="1.9" opacity="0.72"/>
      <path d="M8 42.2H40" stroke-width="2.3" opacity="0.92"/>
      <path d="M17.6 33.8L8 43" stroke-width="2.6"/>
      <path d="M30.4 33.8L40 43" stroke-width="2.6"/>
    </g>
  </g>
  <g font-family="ui-sans-serif, -apple-system, 'Segoe UI', Inter, Helvetica, Arial, sans-serif">
    <text x="70" y="33" font-size="20" font-weight="600" letter-spacing="-0.3" fill="#f1f5f9"><tspan fill="#7dd3fc">L</tspan>ovely <tspan fill="#7dd3fc">T</tspan>rack <tspan fill="#7dd3fc">A</tspan>ccess</text>
    <text x="70" y="49" font-size="11" letter-spacing="1.6" fill="#64748b">TRACK POSSESSION SCHEDULING</text>
  </g>
</svg>
